# xmcd CD database file
#
# Track frame offsets:
#	210
#	41502
#	65651
#	106146
#	133434
#	156003
#	191700
#	217221
#
# Disc length: 3410 seconds
#
# Revision: 0
# Processed by: cddbd v1.5.2PL0 Copyright (c) Steve Scherf et al.
# Submitted via: CDex 1.70beta2
#
DISCID=7b0d5008
DTITLE=Ivar Kolve Trio - Ope
DYEAR=1998
DGENRE=Jazz
TTITLE0=Cutting the hedge
TTITLE1=Free Quebec
TTITLE2=Lasha Mambo
TTITLE3=Alternative blues for Yvard
TTITLE4=Jonar
TTITLE5=Caravan
TTITLE6=7/4 Strekkfisk
TTITLE7=Bergen open
EXTD=YEAR: 1998
EXTT0=
EXTT1=
EXTT2=
EXTT3=
EXTT4=
EXTT5=
EXTT6=
EXTT7=
PLAYORDER=
